<?xml version="1.0" encoding="utf-8"?>
<!-- Generator: Adobe Illustrator 16.0.0, SVG Export Plug-In . SVG Version: 6.00 Build 0)  -->
<!DOCTYPE svg PUBLIC "-//W3C//DTD SVG 1.1//EN" "http://www.w3.org/Graphics/SVG/1.1/DTD/svg11.dtd">
<svg version="1.1" id="Layer_1" xmlns="http://www.w3.org/2000/svg" xmlns:xlink="http://www.w3.org/1999/xlink" x="0px" y="0px"
	 width="275.228px" height="200px" viewBox="0 0 275.228 200" enable-background="new 0 0 275.228 200" xml:space="preserve">
<path d="M265.862,53.169L124.583,190.878c-5.993,5.851-14.124,9.122-22.607,9.122c-8.477,0-16.608-3.285-22.601-9.122L9.36,122.628
	C-3.122,110.466-3.122,90.742,9.367,78.56c5.993-5.844,14.117-9.115,22.594-9.115c8.477,0,16.601,3.271,22.587,9.115l41.733,40.688
	c1.507,1.466,3.57,2.308,5.708,2.308c2.138,0,4.194-0.842,5.708-2.308L220.661,9.122C226.66,3.285,234.791,0,243.275,0
	c8.47,0,16.601,3.285,22.587,9.122C278.35,21.291,278.35,41.014,265.862,53.169z"/>
</svg>
